# AST/ASF file generated using VICON BodyLanguage
# -----------------------------------------------
:version 1.10
:name VICON
:units
  mass 1.0
  length 0.45
  angle deg
:documentation
   .ast/.asf automatically generated from VICON data using
   VICON BodyBuilder and BodyLanguage model FoxedUp or BRILLIANT.MOD
:root
   order TX TY TZ RX RY RZ
   axis XYZ
   position 0 0 0  
   orientation 0 0 0 
:bonedata
  begin
     id 1 
     name lhipjoint
     direction 0.603808 -0.713975 0.35448 
     length 2.2025 
     axis 0 0 0  XYZ
  end
  begin
     id 2 
     name lfemur
     direction 0.34202 -0.939693 0  
     length 6.55877  
     axis 0 0 20  XYZ
    dof rx ry rz
    limits (-160.0 20.0)
           (-70.0 70.0)
           (-60.0 70.0)
  end
  begin
     id 3 
     name ltibia
     direction 0.34202 -0.939693 0   
     length 6.80302   
     axis 0 0 20   XYZ
    dof rx
    limits (-10.0 170.0)
  end
  begin
     id 4 
     name lfoot
     direction 0.091848 -0.25235 0.963267   
     length 2.03446   
     axis -90 7.62852e-016 20   XYZ
    dof rx rz
    limits (-45.0 90.0)
           (-70.0 20.0)
  end
  begin
     id 5 
     name ltoes
     direction 1.53608e-011 -4.21925e-011 1   
     length 1.02033   
     axis -90 7.62852e-016 20   XYZ
    dof rx
    limits (-90.0 20.0)
  end
  begin
     id 6 
     name rhipjoint
     direction -0.587285 -0.724947 0.359928   
     length 2.16916  
     axis 0 0 0  XYZ 
  end
  begin
     id 7 
     name rfemur
     direction -0.34202 -0.939693 0   
     length 6.43173   
     axis 0 0 -20   XYZ
    dof rx ry rz
    limits (-160.0 20.0)
           (-70.0 70.0)
           (-70.0 60.0)
  end
  begin
     id 8 
     name rtibia
     direction -0.34202 -0.939693 0   
     length 6.70662   
     axis 0 0 -20   XYZ
    dof rx
    limits (-10.0 170.0)
 end
 begin
     id 9 
     name rfoot
     direction -0.11854 -0.325686 0.938018   
     length 2.0773  
     axis -90 -7.62852e-016 -20   XYZ
    dof rx rz
    limits (-45.0 90.0)
           (-20.0 70.0)
  end
  begin
     id 10 
     name rtoes
     direction -1.53547e-011 -4.21838e-011 1   
     length 1.03267   
     axis -90 -7.62852e-016 -20   XYZ
    dof rx
    limits (-90.0 20.0)
  end
  begin
     id 11 
     name lowerback
     direction -0.0286554 0.999539 0.0100613   
     length 2.08751   
     axis 0 0 0   XYZ
    dof rx ry rz
    limits (-20.0 45.0)
           (-30.0 30.0)
           (-30.0 30.0)
  end
  begin
     id 12 
     name upperback
     direction 0.0227093 0.999705 -0.00860929   
     length 2.08517   
     axis 0 0 0   XYZ
    dof rx ry rz
    limits (-20.0 45.0)
           (-30.0 30.0)
           (-30.0 30.0)
  end
  begin
     id 13 
     name thorax
     direction 0.0351627 0.999285 -0.013892   
     length 2.08412   
     axis 0 0 0   XYZ
    dof rx ry rz
    limits (-20.0 45.0)
           (-30.0 30.0)
           (-30.0 30.0)
  end
  begin
     id 14 
     name lowerneck
     direction -0.0696283 0.997344 0.0213922   
     length 1.44164   
     axis 0 0 0   XYZ
    dof rx ry rz
    limits (-20.0 45.0)
           (-30.0 30.0)
           (-30.0 30.0)
  end
  begin
     id 15 
     name upperneck
     direction 0.0531 0.990412 -0.127531   
     length 1.45022   
     axis 0 0 0   XYZ
    dof rx ry rz
    limits (-20.0 45.0)
           (-30.0 30.0)
           (-30.0 30.0)
  end
  begin
     id 16
     name head
     direction 0.0188154 0.998548 -0.0504727  
     length 1.45845  
     axis 0 0 0   XYZ
    dof rx ry rz
    limits (-20.0 45.0)
           (-30.0 30.0)
           (-30.0 30.0)
  end
  begin
     id 17 
     name lclavicle
     direction 0.961559 0.260051 0.088188  
     length 2.86057  
     axis 0 0 0   XYZ
    dof ry rz
    limits (-20.0 10.0)
           (0.0 20.0)
  end
  begin
     id 18 
     name lhumerus
     direction 1 -4.48959e-011 2.88185e-027   
     length 4.36901   
     axis 180 -30 -90   XYZ
    dof rx ry rz
    limits (-60.0 90.0)
           (-90.0 90.0)
           (-90.0 90.0)
  end
  begin
     id 19
     name lradius
     direction 1 -4.48965e-011 -3.92618e-028   
     length 3.21737   
     axis 180 -30 -90   XYZ
    dof rx
    limits (-10.0 170.0)
  end
  begin
     id 20
     name lwrist
     direction 1 -4.49037e-011 2.57246e-027   
     length 1.60869   
     axis -1.61769e-015 90 90   XYZ
    dof ry
    limits (-180.0 0.0)
 end
  begin
     id 21 
     name lhand
     direction 1 -4.48807e-011 5.12958e-027   
     length 0.564313   
     axis -3.27988e-015 90 90   XYZ
    dof rx rz
    limits (-90.0 90.0)
           (-45.0 45.0)
  end
  begin
     id 22 
     name lfingers
     direction 1 -4.48879e-011 1.02687e-026   
     length 0.454963   
     axis -6.5598e-015 90 90   XYZ
    dof rx
    limits (0.0 90.0)
  end
  begin
     id 23
     name lthumb
     direction 0.707107 -6.3475e-011 0.707107   
     length 0.653239   
     axis -90 45 2.19363e-014   XYZ
    dof rx rz
    limits (-45.0 45.0)
           (-45.0 45.0)
  end
  begin
     id 24 
     name rclavicle
     direction -0.954677 0.253915 0.155304   
     length 3.11497  
     axis 0 0 0   XYZ 
    dof ry rz
    limits (-10.0 20.0)
           (-20.0 0.0)
  end
  begin
     id 25 
     name rhumerus
     direction -1 -4.48958e-011 -8.20169e-028  
     length 4.34118   
     axis 180 30 90   XYZ
    dof rx ry rz
    limits (-90.0 60.0)
           (-90.0 90.0)
           (-90.0 90.0)
  end
  begin
     id 26 
     name rradius
     direction -1 -4.48978e-011 1.5676e-027   
     length 3.09531   
     axis 180 30 90   XYZ
    dof rx
    limits (-10.0 170.0)
  end
  begin
     id 27 
     name rwrist
     direction -1 -4.49001e-011 2.57123e-027   
     length 1.54765   
     axis -1.61769e-015 -90 -90   XYZ
    dof ry
    limits (-180.0 0.0)
  end
  begin
     id 28
     name rhand
     direction -1 -4.48847e-011 5.13225e-027   
     length 0.597446   
     axis -3.27988e-015 -90 -90   XYZ
    dof rx rz
    limits (-90.0 90.0)
           (-45.0 45.0)
  end
  begin
     id 29
     name rfingers
     direction -1 -4.49094e-011 1.02974e-026   
     length 0.481677   
     axis -6.5598e-015 -90 -90   XYZ
    dof rx
    limits (0.0 90.0)
  end
  begin
     id 30
     name rthumb
     direction -0.707107 -6.34859e-011 0.707107   
     length 0.691594   
     axis -90 -45 -2.19363e-014   XYZ
    dof rx rz
    limits (-45.0 45.0)
           (-45.0 45.0)
  end
:hierarchy
  begin
    root lhipjoint rhipjoint lowerback
    lhipjoint lfemur
    lfemur ltibia
    ltibia lfoot
    lfoot ltoes
    rhipjoint rfemur
    rfemur rtibia
    rtibia rfoot
    rfoot rtoes
    lowerback upperback
    upperback thorax
    thorax lowerneck lclavicle rclavicle
    lowerneck upperneck
    upperneck head
    lclavicle lhumerus
    lhumerus lradius
    lradius lwrist
    lwrist lhand lthumb
    lhand lfingers
    rclavicle rhumerus
    rhumerus rradius
    rradius rwrist
    rwrist rhand rthumb
    rhand rfingers
  end

#!OML:ASF I:\Acrobat_Osman\acrobat\cartwheel_test 2\Patient 1\Session 1\acrobat.ASF
:FULLY-SPECIFIED
:DEGREES
1086
root 16.2424 6.87061 6.24372 163.841 523.872 -850.33
lowerback 19.8757 -2.80728 -5.04929
upperback 12.0313 -4.32056 4.64458
thorax 2.82474 -2.57977 8.61449
lowerneck -4.5137 -7.41361 -5.11959
upperneck 2.12854 -10.0216 13.4861
head 2.3355 -4.69078 4.48544
rclavicle 5.08889e-014 -6.99722e-014
rhumerus -31.275 -39.0831 339.185
rradius 23.892
rwrist -687.812
rhand -54.4863 -1173.88
rfingers 7.12502
rthumb -26.8887 65.7712
lclavicle 5.08889e-014 -6.99722e-014
lhumerus -8.78894 0.0436129 68.7181
lradius 38.8232
lwrist 22.9826
lhand -28.5959 60.1154
lfingers 7.12502
lthumb -1.96142 -90.0861
rfemur -82.8705 -11.1581 22.2502
rtibia 76.4846
rfoot -4.64724 -8.05406
rtoes -45.9518
lfemur -46.9082 35.6042 -25.9745
ltibia 99.6983
lfoot -14.8109 -21.533
ltoes -37.1367
1087
root 16.3395 7.06917 6.20957 164.871 526.483 -848.899
lowerback 20.1457 -2.96282 -4.90391
upperback 11.9257 -4.51129 5.00365
thorax 2.63402 -2.67623 8.98452
lowerneck -4.43786 -7.15725 -5.22634
upperneck 1.50307 -9.61931 13.8979
head 2.12892 -4.5102 4.66253
rclavicle -1.43125e-014 -3.81667e-014
rhumerus -26.0951 -39.4598 337.673
rradius 23.8614
rwrist -686.914
rhand -54.3245 -1173.54
rfingers 7.12502
rthumb -26.7339 65.4107
lclavicle -1.43125e-014 -3.81667e-014
lhumerus -6.16039 -0.813455 66.8638
lradius 41.3187
lwrist 23.6893
lhand -28.1814 58.6922
lfingers 7.12502
lthumb -1.56112 88.6662
rfemur -84.262 -11.0454 23.4157
rtibia 78.2926
rfoot -6.5925 -8.66179
rtoes -45.4177
lfemur -47.0324 35.3445 -28.2201
ltibia 98.5533
lfoot -15.218 -20.3514
ltoes -38.0075
1088
root 16.4127 7.29161 6.16461 165.751 529.175 -847.587
lowerback 20.424 -3.10476 -4.57416
upperback 11.9597 -4.65281 5.32079
thorax 2.56387 -2.74256 9.19154
lowerneck -4.6956 -6.87442 -5.26773
upperneck 0.872708 -9.17281 14.1658
head 1.95994 -4.30045 4.77605
rclavicle -2.38542e-014 1.59028e-014
rhumerus -20.9198 -40.0051 336.007
rradius 23.9222
rwrist -685.965
rhand -54.2669 -1172.84
rfingers 7.12502
rthumb -26.6787 64.6996
lclavicle -2.38542e-014 1.59028e-014
lhumerus -3.42729 -1.41906 64.4419
lradius 43.599
lwrist 24.3217
lhand -27.7325 57.9053
lfingers 7.12502
lthumb -1.12755 87.8821
rfemur -85.8047 -10.8806 24.308
rtibia 80.0424
rfoot -8.16281 -9.0385
rtoes -44.7194
lfemur -46.953 35.0023 -30.3767
ltibia 97.0558
lfoot -16.3228 -18.1651
ltoes -41.8933
1089
root 16.4947 7.51405 6.13437 166.609 531.859 -846.288
lowerback 20.6631 -3.27507 -4.32469
upperback 11.9305 -4.83959 5.70545
thorax 2.47026 -2.83758 9.53022
lowerneck -4.69885 -6.47504 -5.31609
upperneck 0.10586 -8.55097 14.061
head 1.67163 -4.02786 4.79714
rclavicle 8.11041e-014 3.18055e-014
rhumerus -15.7394 -39.9305 334.31
rradius 24.1816
rwrist -685.371
rhand -54.1697 -1172.55
rfingers 7.12502
rthumb -26.5858 64.3978
lclavicle 8.11041e-014 3.18055e-014
lhumerus -0.935248 -1.61819 61.8134
lradius 45.3997
lwrist 24.652
lhand -27.1889 56.5082
lfingers 7.12502
lthumb -0.602521 86.4871
rfemur -87.3684 -10.6977 25.0042
rtibia 81.9503
rfoot -9.65484 -9.70968
rtoes -43.2468
lfemur -46.9371 34.3737 -32.4405
ltibia 95.4292
lfoot -16.7545 -16.4907
ltoes -43.9332
1090
root 16.5702 7.74486 6.10679 167.305 534.531 -845.149
lowerback 21.0073 -3.41273 -3.80503
upperback 11.9955 -4.93519 6.09671
thorax 2.38457 -2.87226 9.71228
lowerneck -5.15663 -6.12987 -5.14733
upperneck -0.520294 -8.01765 13.6443
head 1.48515 -3.78108 4.66634
rclavicle -6.36111e-015 -8.90555e-014
rhumerus -10.7998 -39.888 332.831
rradius 24.3393
rwrist -684.942
rhand -53.9882 -1172.6
rfingers 7.12502
rthumb -26.412 64.4196
lclavicle -6.36111e-015 -8.90555e-014
lhumerus 1.69572 -1.82584 58.9591
lradius 46.9153
lwrist 24.598
lhand -26.7474 55.9281
lfingers 7.12502
lthumb -0.17614 85.9078
rfemur -88.9985 -10.4823 25.6281
rtibia 83.932
rfoot -10.4901 -10.9569
rtoes -43.7663
lfemur -46.7348 33.3974 -33.993
ltibia 93.5391
lfoot -16.6175 -15.9829
ltoes -44.7703
1091
root 16.6364 7.98311 6.07961 167.83 537.243 -844.033
lowerback 21.4868 -3.42477 -3.01733
upperback 12.2195 -4.82271 6.35962
thorax 2.32576 -2.78422 9.56424
lowerneck -6.43694 -5.9083 -4.44398
upperneck -0.840591 -7.70101 12.9106
head 1.51004 -3.60742 4.31551
rclavicle 7.63333e-014 -4.29375e-014
rhumerus -6.22055 -40.8301 331.538
rradius 24.2775
rwrist -683.998
rhand -54.2536 -1172.14
rfingers 7.12502
rthumb -26.6661 63.9971
lclavicle 7.63333e-014 -4.29375e-014
lhumerus 4.63659 -2.09411 55.6963
lradius 48.1348
lwrist 24.1056
lhand -27.0092 54.919
lfingers 7.12502
lthumb -0.428986 84.8983
rfemur -90.7577 -10.2703 26.0636
rtibia 86.1753
rfoot -11.4412 -12.7069
rtoes -41.6482
lfemur -46.1588 32.1215 -35.1285
ltibia 91.3531
lfoot -16.9061 -15.9835
ltoes -47.005
1092
root 16.7032 8.22265 6.0621 168.297 539.994 -842.835
lowerback 22.1453 -3.42359 -2.38964
upperback 12.2445 -4.70336 6.65395
thorax 1.97887 -2.69016 9.5658
lowerneck -7.11173 -5.57277 -3.97686
upperneck -1.36985 -7.22437 11.7587
head 1.48002 -3.3998 4.32522
rclavicle 2.22639e-014 3.65764e-014
rhumerus -1.87634 -41.4477 330.458
rradius 24.2608
rwrist -682.961
rhand -54.9557 -1171.35
rfingers 7.12502
rthumb -27.3378 63.3162
lclavicle 2.22639e-014 3.65764e-014
lhumerus 6.64356 -2.19901 52.2847
lradius 49.354
lwrist 23.2937
lhand -27.2462 53.8783
lfingers 7.12502
lthumb -0.65791 83.8571
rfemur -92.7218 -10.0634 26.2146
rtibia 88.6396
rfoot -11.8784 -14.8446
rtoes -38.3382
lfemur -45.5278 30.722 -36.1587
ltibia 89.0753
lfoot -17.1608 -16.4647
ltoes -49.2147
1093
root 16.7717 8.46263 6.04618 168.758 542.76 -841.81
lowerback 23.0725 -3.45965 -1.70067
upperback 12.0707 -4.58518 7.08235
thorax 1.29275 -2.58472 9.71442
lowerneck -7.20602 -5.14359 -3.78807
upperneck -2.16046 -6.59491 10.961
head 1.13508 -3.12523 4.0378
rclavicle -5.725e-014 6.83819e-014
rhumerus 2.08538 -41.0952 329.819
rradius 24.4782
rwrist -682.595
rhand -55.0856 -1170.94
rfingers 7.12502
rthumb -27.462 62.9218
lclavicle -5.725e-014 6.83819e-014
lhumerus 7.67929 -2.19936 48.9147
lradius 50.7446
lwrist 22.6256
lhand -27.0022 53.768
lfingers 7.12502
lthumb -0.422209 83.7473
rfemur -94.83 -9.86456 26.0373
rtibia 91.7029
rfoot -13.471 -16.3706
rtoes -30.8737
lfemur -45.3405 29.5484 -37.0778
ltibia 86.913
lfoot -16.5828 -17.0575
ltoes -50.5804
1094
root 16.8427 8.69242 6.04271 169.226 546.5 -840.568
lowerback 23.9356 -3.0153 -1.4517
upperback 12.0971 -3.95368 7.47076
thorax 0.806978 -2.26462 9.95429
lowerneck -7.5476 -4.66524 -3.3762
upperneck -3.04282 -5.92082 9.93936
head 0.793986 -2.82599 3.62959
rclavicle 8.26944e-014 1.18476e-013
rhumerus 5.95644 -40.6113 329.316
rradius 24.8498
rwrist -682.635
rhand -54.6521 -1170.76
rfingers 7.12502
rthumb -27.0474 62.6751
lclavicle 8.26944e-014 1.18476e-013
lhumerus 8.48729 -1.70017 45.6331
lradius 52.2128
lwrist 22.5047
lhand -27.4996 52.1828
lfingers 7.12502
lthumb -0.902638 82.1606
rfemur -96.9908 -8.74063 25.7951
rtibia 94.7161
rfoot -14.3508 -17.8061
rtoes -31.1861
lfemur -45.8508 29.7198 -38.2751
ltibia 84.9861
lfoot -15.2335 -17.5639
ltoes -50.6574
1095
root 16.8894 8.95522 6.05627 169.426 548.598 -839.5
lowerback 24.8836 -3.20734 -0.933643
upperback 12.1183 -4.04838 7.93476
thorax 0.404852 -2.29205 10.2861
lowerneck -8.16761 -4.09963 -3.10134
upperneck -3.58484 -5.15888 8.7882
head 0.620279 -2.46646 3.20477
rclavicle 3.81667e-014 -2.82274e-014
rhumerus 9.96895 -40.0998 328.942
rradius 25.0929
rwrist -682.805
rhand -54.3387 -1170.67
rfingers 7.12502
rthumb -26.7475 62.5383
lclavicle 3.81667e-014 -2.82274e-014
lhumerus 8.77649 -1.00909 42.6241
lradius 53.4394
lwrist 22.0716
lhand -28.3868 51.8081
lfingers 7.12502
lthumb -1.75948 81.7806
rfemur -99.5092 -9.47 26.0481
rtibia 97.6871
rfoot -13.0101 -20.4112
rtoes -37.9482
lfemur -45.5561 28.5523 -39.3469
ltibia 82.8568
lfoot -12.9461 -18.0734
ltoes -49.1934
1096
root 16.9431 9.21159 6.09141 169.607 551.225 -838.193
lowerback 25.6796 -3.08116 -0.545307
upperback 12.2289 -3.77953 8.32623
thorax 0.113197 -2.15211 10.5137
lowerneck -8.96576 -3.57441 -2.78638
upperneck -4.08102 -4.46801 7.45361
head 0.501962 -2.14019 2.71243
rclavicle 3.18055e-014 -1.09332e-015
rhumerus 13.8535 -39.8969 328.647
rradius 25.2344
rwrist -682.925
rhand -54.1933 -1170.42
rfingers 7.12502
rthumb -26.6083 62.2729
lclavicle 3.18055e-014 -1.09332e-015
lhumerus 8.9976 -0.213664 39.9636
lradius 54.2011
lwrist 21.4824
lhand -29.3959 50.7329
lfingers 7.12502
lthumb -2.73405 80.6951
rfemur -102.367 -9.79978 26.0004
rtibia 100.779
rfoot -12.1285 -22.4742
rtoes -39.5821
lfemur -45.4666 27.7971 -40.5987
ltibia 80.6153
lfoot -10.6751 -18.4992
ltoes -47.5547
1097
root 16.9974 9.46397 6.1517 169.638 554.059 -836.684
lowerback 26.1577 -2.92008 0.0148024
upperback 12.5353 -3.47736 8.38819
thorax 0.145037 -1.99173 10.2072
lowerneck -9.59956 -3.01483 -2.17909
upperneck -4.88062 -3.7596 6.08135
head 0.263113 -1.81852 2.17015
rclavicle -9.54166e-015 5.92378e-014
rhumerus 17.4318 -39.9071 328.109
rradius 25.515
rwrist -682.934
rhand -54.1267 -1350.24
rfingers 7.12502
rthumb -26.5446 61.6043
lclavicle -9.54166e-015 5.92378e-014
lhumerus 9.21363 0.581119 37.2309
lradius 54.3651
lwrist 21.0728
lhand -30.5966 49.99
lfingers 7.12502
lthumb -3.89359 79.9341
rfemur -105.322 -10.0442 25.5952
rtibia 103.964
rfoot -11.8854 -24.3585
rtoes -39.4851
lfemur -45.1027 26.9236 -41.7492
ltibia 78.0564
lfoot -8.60733 -19.1304
ltoes -46.3065
1098
root 17.0345 9.72705 6.20783 169.422 557.432 -835.142
lowerback 26.8543 -2.50579 0.505499
upperback 12.8838 -2.87851 8.34389
thorax 0.0744634 -1.68602 9.75292
lowerneck -9.77905 -2.43294 -1.25574
upperneck -5.98471 -3.06851 4.50161
head -0.138372 -1.52187 1.52389
rclavicle -4.13472e-014 -2.22639e-014
rhumerus 20.287 -39.4099 328.256
rradius 25.8757
rwrist -683.485
rhand -54.0468 -1351.02
rfingers 7.12502
rthumb -26.4681 60.8057
lclavicle -4.13472e-014 -2.22639e-014
lhumerus 8.91048 1.47741 34.8941
lradius 54.3029
lwrist 20.8767
lhand -31.6357 49.5033
lfingers 7.12502
lthumb -4.89695 79.4267
rfemur -108.358 -9.8461 25.2076
rtibia 106.968
rfoot -11.9285 -25.647
rtoes -38.9463
lfemur -44.5215 26.0729 -42.4003
ltibia 75.1599
lfoot -6.16242 -20.2077
ltoes -44.7314
1099
root 17.0712 9.97877 6.27397 169.27 560.939 -833.883
lowerback 27.4877 -1.92455 1.07183
upperback 13.3497 -2.07052 8.50902
thorax 0.163423 -1.29162 9.42691
lowerneck -11.0987 -1.91484 0.0296368
upperneck -6.03542 -2.57515 2.16736
head -0.0180158 -1.31333 0.578045
rclavicle -2.8625e-014 3.4191e-014
rhumerus 23.1303 -39.217 328.788
rradius 26.0913
rwrist -684.181
rhand -53.8438 -1351.74
rfingers 7.12502
rthumb -26.2738 60.0549
lclavicle -2.8625e-014 3.4191e-014
lhumerus 8.42671 2.54374 33.2779
lradius 53.7947
lwrist 20.5483
lhand -31.9195 49.5297
lfingers 7.12502
lthumb -5.17103 79.4466
rfemur -111.683 -9.57683 25.1341
rtibia 110.002
rfoot -12.7385 -26.475
rtoes -37.0326
lfemur -44.028 24.9065 -42.4405
ltibia 72.2005
lfoot -3.16843 -21.3516
ltoes -41.9941
1100
root 17.0916 10.2303 6.36769 169.242 564.528 -832.892
lowerback 27.8455 -1.4386 1.78392
upperback 13.8475 -1.38014 8.7908
thorax 0.455884 -0.960895 9.15969
lowerneck -12.4233 -1.35499 0.739249
upperneck -5.98558 -1.97208 0.244297
head 0.174637 -1.04789 -0.119405
rclavicle -1.59028e-014 -7.95139e-014
rhumerus 26.7922 -39.3359 328.568
rradius 26.0444
rwrist -684.135
rhand -53.6521 -1352.55
rfingers 7.12502
rthumb -26.0902 59.2234
lclavicle -1.59028e-014 -7.95139e-014
lhumerus 7.25084 2.89453 31.6859
lradius 52.8461
lwrist 20.4478
lhand -31.871 49.8032
lfingers 7.12502
lthumb -5.1242 79.7213
rfemur -114.855 -9.53071 25.2181
rtibia 112.084
rfoot -12.364 -27.4466
rtoes -36.394
lfemur -43.5576 23.6614 -42.0637
ltibia 69.3004
lfoot -0.539634 -22.2975
ltoes -39.6153
